<svg xmlns="http://www.w3.org/2000/svg" xmlns:xlink="http://www.w3.org/1999/xlink" width="500" zoomAndPan="magnify" viewBox="0 0 375 374.999991" height="500" preserveAspectRatio="xMidYMid meet" version="1.0"><defs><g/><clipPath id="7dca3a131c"><path d="M 51.328125 205.847656 L 323.703125 205.847656 L 323.703125 217.234375 L 51.328125 217.234375 Z M 51.328125 205.847656 " clip-rule="nonzero"/></clipPath><clipPath id="c1fa8a28bf"><path d="M 51.328125 205.847656 L 53.792969 217.234375 L 323.671875 206.464844 L 323.515625 205.847656 Z M 51.328125 205.847656 " clip-rule="nonzero"/></clipPath></defs><g fill="#0658f6" fill-opacity="1"><g transform="translate(50.754468, 197.639855)"><g><path d="M 32.1875 -10.921875 C 32.1875 -9.273438 31.796875 -7.742188 31.015625 -6.328125 C 30.234375 -4.910156 29.140625 -3.695312 27.734375 -2.6875 C 26.335938 -1.675781 24.675781 -0.878906 22.75 -0.296875 C 20.832031 0.273438 18.734375 0.5625 16.453125 0.5625 C 13.429688 0.5625 10.554688 0.0195312 7.828125 -1.0625 C 5.109375 -2.144531 2.832031 -3.640625 1 -5.546875 L 6.15625 -10.296875 C 7.726562 -8.734375 9.273438 -7.632812 10.796875 -7 C 12.328125 -6.363281 14.195312 -6.046875 16.40625 -6.046875 C 18.789062 -6.046875 20.726562 -6.546875 22.21875 -7.546875 C 23.71875 -8.554688 24.46875 -9.867188 24.46875 -11.484375 C 24.46875 -12.929688 23.785156 -14.082031 22.421875 -14.9375 C 21.054688 -15.800781 19.253906 -16.234375 17.015625 -16.234375 L 13.4375 -16.234375 L 13.4375 -22.34375 L 16.234375 -22.34375 C 18.253906 -22.34375 19.9375 -22.878906 21.28125 -23.953125 C 22.625 -25.035156 23.296875 -26.398438 23.296875 -28.046875 C 23.296875 -29.503906 22.628906 -30.71875 21.296875 -31.6875 C 19.972656 -32.65625 18.304688 -33.140625 16.296875 -33.140625 C 14.390625 -33.140625 12.707031 -32.796875 11.25 -32.109375 C 9.789062 -31.421875 8.222656 -30.234375 6.546875 -28.546875 L 1.34375 -33.3125 C 3.25 -35.320312 5.546875 -36.90625 8.234375 -38.0625 C 10.921875 -39.226562 13.703125 -39.8125 16.578125 -39.8125 C 18.660156 -39.8125 20.585938 -39.539062 22.359375 -39 C 24.140625 -38.457031 25.660156 -37.695312 26.921875 -36.71875 C 28.191406 -35.75 29.179688 -34.59375 29.890625 -33.25 C 30.597656 -31.90625 30.953125 -30.429688 30.953125 -28.828125 C 30.953125 -26.890625 30.429688 -25.125 29.390625 -23.53125 C 28.347656 -21.945312 26.929688 -20.691406 25.140625 -19.765625 C 27.265625 -19.015625 28.96875 -17.851562 30.25 -16.28125 C 31.539062 -14.71875 32.1875 -12.929688 32.1875 -10.921875 Z M 32.1875 -10.921875 "/></g></g></g><g fill="#0658f6" fill-opacity="1"><g transform="translate(83.775623, 197.639855)"><g><path d="M 3.53125 0 L 3.53125 -39.1875 L 18.59375 -39.1875 C 21.5 -39.1875 24.21875 -38.679688 26.75 -37.671875 C 29.289062 -36.671875 31.484375 -35.289062 33.328125 -33.53125 C 35.179688 -31.78125 36.640625 -29.691406 37.703125 -27.265625 C 38.765625 -24.835938 39.296875 -22.242188 39.296875 -19.484375 C 39.296875 -16.753906 38.765625 -14.195312 37.703125 -11.8125 C 36.640625 -9.425781 35.179688 -7.363281 33.328125 -5.625 C 31.484375 -3.882812 29.289062 -2.507812 26.75 -1.5 C 24.21875 -0.5 21.5 0 18.59375 0 Z M 18.53125 -31.96875 L 11.640625 -31.96875 L 11.640625 -7.21875 L 18.53125 -7.21875 C 20.25 -7.21875 21.863281 -7.535156 23.375 -8.171875 C 24.882812 -8.804688 26.195312 -9.671875 27.3125 -10.765625 C 28.4375 -11.867188 29.316406 -13.164062 29.953125 -14.65625 C 30.585938 -16.15625 30.90625 -17.765625 30.90625 -19.484375 C 30.90625 -21.234375 30.585938 -22.875 29.953125 -24.40625 C 29.316406 -25.9375 28.4375 -27.257812 27.3125 -28.375 C 26.195312 -29.5 24.882812 -30.378906 23.375 -31.015625 C 21.863281 -31.648438 20.25 -31.96875 18.53125 -31.96875 Z M 18.53125 -31.96875 "/></g></g></g><g fill="#0658f6" fill-opacity="1"><g transform="translate(123.624964, 197.639855)"><g><path d="M 3.015625 0 L 3.015625 -39.1875 L 10.6875 -40.875 L 10.6875 -16.84375 L 23.296875 -29.171875 L 31.96875 -29.171875 L 18.3125 -15.78125 L 32.8125 0 L 23.015625 0 L 10.6875 -13.328125 L 10.6875 0 Z M 3.015625 0 "/></g></g></g><g fill="#0658f6" fill-opacity="1"><g transform="translate(153.959616, 197.639855)"><g><path d="M 12.265625 0.5 C 9.128906 0.5 6.570312 -0.328125 4.59375 -1.984375 C 2.613281 -3.648438 1.625 -5.804688 1.625 -8.453125 C 1.625 -11.210938 2.6875 -13.375 4.8125 -14.9375 C 6.9375 -16.507812 9.867188 -17.296875 13.609375 -17.296875 C 14.796875 -17.296875 15.988281 -17.203125 17.1875 -17.015625 C 18.382812 -16.828125 19.5625 -16.546875 20.71875 -16.171875 L 20.71875 -18.25 C 20.71875 -19.925781 20.191406 -21.191406 19.140625 -22.046875 C 18.097656 -22.910156 16.570312 -23.34375 14.5625 -23.34375 C 13.320312 -23.34375 11.984375 -23.144531 10.546875 -22.75 C 9.109375 -22.363281 7.476562 -21.757812 5.65625 -20.9375 L 2.859375 -26.59375 C 5.128906 -27.632812 7.335938 -28.414062 9.484375 -28.9375 C 11.628906 -29.46875 13.75 -29.734375 15.84375 -29.734375 C 19.757812 -29.734375 22.804688 -28.789062 24.984375 -26.90625 C 27.171875 -25.019531 28.265625 -22.359375 28.265625 -18.921875 L 28.265625 0 L 20.71875 0 L 20.71875 -2.015625 C 19.476562 -1.160156 18.175781 -0.523438 16.8125 -0.109375 C 15.457031 0.296875 13.941406 0.5 12.265625 0.5 Z M 8.953125 -8.625 C 8.953125 -7.5 9.4375 -6.609375 10.40625 -5.953125 C 11.382812 -5.304688 12.675781 -4.984375 14.28125 -4.984375 C 15.539062 -4.984375 16.703125 -5.140625 17.765625 -5.453125 C 18.835938 -5.773438 19.820312 -6.234375 20.71875 -6.828125 L 20.71875 -11.203125 C 19.78125 -11.566406 18.796875 -11.832031 17.765625 -12 C 16.742188 -12.175781 15.675781 -12.265625 14.5625 -12.265625 C 12.800781 -12.265625 11.425781 -11.9375 10.4375 -11.28125 C 9.445312 -10.625 8.953125 -9.738281 8.953125 -8.625 Z M 8.953125 -8.625 "/></g></g></g><g fill="#0658f6" fill-opacity="1"><g transform="translate(183.566681, 197.639855)"><g><path d="M 3.015625 0 L 3.015625 -29.171875 L 10.6875 -29.171875 L 10.6875 -25.984375 C 11.625 -27.242188 12.753906 -28.203125 14.078125 -28.859375 C 15.398438 -29.515625 16.863281 -29.84375 18.46875 -29.84375 C 19.21875 -29.800781 19.84375 -29.734375 20.34375 -29.640625 C 20.851562 -29.546875 21.296875 -29.390625 21.671875 -29.171875 L 21.671875 -22.453125 C 21.109375 -22.710938 20.488281 -22.90625 19.8125 -23.03125 C 19.144531 -23.164062 18.457031 -23.234375 17.75 -23.234375 C 16.25 -23.234375 14.875 -22.859375 13.625 -22.109375 C 12.375 -21.367188 11.394531 -20.285156 10.6875 -18.859375 L 10.6875 0 Z M 3.015625 0 "/></g></g></g><g fill="#0658f6" fill-opacity="1"><g transform="translate(204.890364, 197.639855)"><g><path d="M 1.671875 -14.5625 C 1.671875 -16.6875 2.070312 -18.671875 2.875 -20.515625 C 3.6875 -22.367188 4.789062 -23.972656 6.1875 -25.328125 C 7.582031 -26.691406 9.234375 -27.765625 11.140625 -28.546875 C 13.046875 -29.335938 15.082031 -29.734375 17.25 -29.734375 C 19.40625 -29.734375 21.4375 -29.335938 23.34375 -28.546875 C 25.25 -27.765625 26.898438 -26.691406 28.296875 -25.328125 C 29.703125 -23.972656 30.804688 -22.367188 31.609375 -20.515625 C 32.410156 -18.671875 32.8125 -16.6875 32.8125 -14.5625 C 32.8125 -12.425781 32.410156 -10.4375 31.609375 -8.59375 C 30.804688 -6.75 29.703125 -5.15625 28.296875 -3.8125 C 26.898438 -2.46875 25.25 -1.398438 23.34375 -0.609375 C 21.4375 0.171875 19.40625 0.5625 17.25 0.5625 C 15.082031 0.5625 13.046875 0.171875 11.140625 -0.609375 C 9.234375 -1.398438 7.582031 -2.46875 6.1875 -3.8125 C 4.789062 -5.15625 3.6875 -6.75 2.875 -8.59375 C 2.070312 -10.4375 1.671875 -12.425781 1.671875 -14.5625 Z M 17.25 -6.109375 C 19.488281 -6.109375 21.390625 -6.925781 22.953125 -8.5625 C 24.523438 -10.207031 25.3125 -12.207031 25.3125 -14.5625 C 25.3125 -16.945312 24.523438 -18.957031 22.953125 -20.59375 C 21.390625 -22.238281 19.488281 -23.0625 17.25 -23.0625 C 15.007812 -23.0625 13.101562 -22.238281 11.53125 -20.59375 C 9.96875 -18.957031 9.1875 -16.945312 9.1875 -14.5625 C 9.1875 -12.207031 9.96875 -10.207031 11.53125 -8.5625 C 13.101562 -6.925781 15.007812 -6.109375 17.25 -6.109375 Z M 17.25 -6.109375 "/></g></g></g><g fill="#0658f6" fill-opacity="1"><g transform="translate(237.911523, 197.639855)"><g><path d="M 33.703125 -14.5625 C 33.703125 -12.46875 33.304688 -10.503906 32.515625 -8.671875 C 31.734375 -6.847656 30.671875 -5.265625 29.328125 -3.921875 C 27.992188 -2.578125 26.398438 -1.519531 24.546875 -0.75 C 22.703125 0.0078125 20.734375 0.390625 18.640625 0.390625 C 17.179688 0.390625 15.757812 0.1875 14.375 -0.21875 C 13 -0.632812 11.734375 -1.210938 10.578125 -1.953125 L 10.578125 0 L 3.015625 0 L 3.015625 -39.1875 L 10.6875 -40.875 L 10.6875 -26.875 C 11.84375 -27.726562 13.117188 -28.390625 14.515625 -28.859375 C 15.921875 -29.328125 17.367188 -29.5625 18.859375 -29.5625 C 20.921875 -29.5625 22.851562 -29.164062 24.65625 -28.375 C 26.46875 -27.59375 28.046875 -26.53125 29.390625 -25.1875 C 30.734375 -23.84375 31.785156 -22.253906 32.546875 -20.421875 C 33.316406 -18.597656 33.703125 -16.644531 33.703125 -14.5625 Z M 17.640625 -23.015625 C 16.253906 -23.015625 14.960938 -22.78125 13.765625 -22.3125 C 12.578125 -21.84375 11.550781 -21.160156 10.6875 -20.265625 L 10.6875 -8.796875 C 11.507812 -7.972656 12.523438 -7.316406 13.734375 -6.828125 C 14.953125 -6.347656 16.253906 -6.109375 17.640625 -6.109375 C 20.023438 -6.109375 22.035156 -6.914062 23.671875 -8.53125 C 25.316406 -10.15625 26.140625 -12.164062 26.140625 -14.5625 C 26.140625 -16.945312 25.304688 -18.953125 23.640625 -20.578125 C 21.984375 -22.203125 19.984375 -23.015625 17.640625 -23.015625 Z M 17.640625 -23.015625 "/></g></g></g><g fill="#0658f6" fill-opacity="1"><g transform="translate(271.828169, 197.639855)"><g><path d="M 12.265625 0.5 C 9.128906 0.5 6.570312 -0.328125 4.59375 -1.984375 C 2.613281 -3.648438 1.625 -5.804688 1.625 -8.453125 C 1.625 -11.210938 2.6875 -13.375 4.8125 -14.9375 C 6.9375 -16.507812 9.867188 -17.296875 13.609375 -17.296875 C 14.796875 -17.296875 15.988281 -17.203125 17.1875 -17.015625 C 18.382812 -16.828125 19.5625 -16.546875 20.71875 -16.171875 L 20.71875 -18.25 C 20.71875 -19.925781 20.191406 -21.191406 19.140625 -22.046875 C 18.097656 -22.910156 16.570312 -23.34375 14.5625 -23.34375 C 13.320312 -23.34375 11.984375 -23.144531 10.546875 -22.75 C 9.109375 -22.363281 7.476562 -21.757812 5.65625 -20.9375 L 2.859375 -26.59375 C 5.128906 -27.632812 7.335938 -28.414062 9.484375 -28.9375 C 11.628906 -29.46875 13.75 -29.734375 15.84375 -29.734375 C 19.757812 -29.734375 22.804688 -28.789062 24.984375 -26.90625 C 27.171875 -25.019531 28.265625 -22.359375 28.265625 -18.921875 L 28.265625 0 L 20.71875 0 L 20.71875 -2.015625 C 19.476562 -1.160156 18.175781 -0.523438 16.8125 -0.109375 C 15.457031 0.296875 13.941406 0.5 12.265625 0.5 Z M 8.953125 -8.625 C 8.953125 -7.5 9.4375 -6.609375 10.40625 -5.953125 C 11.382812 -5.304688 12.675781 -4.984375 14.28125 -4.984375 C 15.539062 -4.984375 16.703125 -5.140625 17.765625 -5.453125 C 18.835938 -5.773438 19.820312 -6.234375 20.71875 -6.828125 L 20.71875 -11.203125 C 19.78125 -11.566406 18.796875 -11.832031 17.765625 -12 C 16.742188 -12.175781 15.675781 -12.265625 14.5625 -12.265625 C 12.800781 -12.265625 11.425781 -11.9375 10.4375 -11.28125 C 9.445312 -10.625 8.953125 -9.738281 8.953125 -8.625 Z M 8.953125 -8.625 "/></g></g></g><g fill="#0658f6" fill-opacity="1"><g transform="translate(301.435223, 197.639855)"><g><path d="M 3.015625 0 L 3.015625 -29.171875 L 10.6875 -29.171875 L 10.6875 -25.984375 C 11.625 -27.242188 12.753906 -28.203125 14.078125 -28.859375 C 15.398438 -29.515625 16.863281 -29.84375 18.46875 -29.84375 C 19.21875 -29.800781 19.84375 -29.734375 20.34375 -29.640625 C 20.851562 -29.546875 21.296875 -29.390625 21.671875 -29.171875 L 21.671875 -22.453125 C 21.109375 -22.710938 20.488281 -22.90625 19.8125 -23.03125 C 19.144531 -23.164062 18.457031 -23.234375 17.75 -23.234375 C 16.25 -23.234375 14.875 -22.859375 13.625 -22.109375 C 12.375 -21.367188 11.394531 -20.285156 10.6875 -18.859375 L 10.6875 0 Z M 3.015625 0 "/></g></g></g><g clip-path="url(#7dca3a131c)"><g clip-path="url(#c1fa8a28bf)"><path fill="#0658f6" d="M 51.328125 205.847656 L 323.65625 205.847656 L 323.65625 217.234375 L 51.328125 217.234375 Z M 51.328125 205.847656 " fill-opacity="1" fill-rule="nonzero"/></g></g><g fill="#0658f6" fill-opacity="1"><g transform="translate(223.525105, 220.626082)"><g><path d="M 2 0.25 L 2.078125 0.046875 L 0 -5.328125 L 1.546875 -5.328125 L 2.859375 -1.703125 L 4.375 -5.328125 L 5.890625 -5.328125 L 3.4375 0.421875 C 3.164062 1.054688 2.847656 1.507812 2.484375 1.78125 C 2.117188 2.0625 1.648438 2.203125 1.078125 2.203125 C 0.953125 2.203125 0.832031 2.195312 0.71875 2.1875 C 0.601562 2.175781 0.515625 2.160156 0.453125 2.140625 L 0.453125 0.9375 C 0.515625 0.945312 0.582031 0.953125 0.65625 0.953125 C 0.738281 0.960938 0.832031 0.96875 0.9375 0.96875 C 1.1875 0.96875 1.398438 0.90625 1.578125 0.78125 C 1.753906 0.664062 1.894531 0.488281 2 0.25 Z M 2 0.25 "/></g></g></g><g fill="#0658f6" fill-opacity="1"><g transform="translate(229.145668, 220.626082)"><g><path d="M 0.3125 -2.65625 C 0.3125 -3.039062 0.382812 -3.398438 0.53125 -3.734375 C 0.675781 -4.078125 0.875 -4.375 1.125 -4.625 C 1.382812 -4.875 1.6875 -5.066406 2.03125 -5.203125 C 2.382812 -5.347656 2.753906 -5.421875 3.140625 -5.421875 C 3.535156 -5.421875 3.90625 -5.347656 4.25 -5.203125 C 4.601562 -5.066406 4.90625 -4.875 5.15625 -4.625 C 5.414062 -4.375 5.617188 -4.078125 5.765625 -3.734375 C 5.910156 -3.398438 5.984375 -3.039062 5.984375 -2.65625 C 5.984375 -2.269531 5.910156 -1.90625 5.765625 -1.5625 C 5.617188 -1.226562 5.414062 -0.9375 5.15625 -0.6875 C 4.90625 -0.445312 4.601562 -0.253906 4.25 -0.109375 C 3.90625 0.0351562 3.535156 0.109375 3.140625 0.109375 C 2.753906 0.109375 2.382812 0.0351562 2.03125 -0.109375 C 1.6875 -0.253906 1.382812 -0.445312 1.125 -0.6875 C 0.875 -0.9375 0.675781 -1.226562 0.53125 -1.5625 C 0.382812 -1.90625 0.3125 -2.269531 0.3125 -2.65625 Z M 3.140625 -1.109375 C 3.554688 -1.109375 3.90625 -1.257812 4.1875 -1.5625 C 4.476562 -1.863281 4.625 -2.226562 4.625 -2.65625 C 4.625 -3.09375 4.476562 -3.457031 4.1875 -3.75 C 3.90625 -4.050781 3.554688 -4.203125 3.140625 -4.203125 C 2.734375 -4.203125 2.382812 -4.050781 2.09375 -3.75 C 1.8125 -3.457031 1.671875 -3.09375 1.671875 -2.65625 C 1.671875 -2.226562 1.8125 -1.863281 2.09375 -1.5625 C 2.382812 -1.257812 2.734375 -1.109375 3.140625 -1.109375 Z M 3.140625 -1.109375 "/></g></g></g><g fill="#0658f6" fill-opacity="1"><g transform="translate(235.175002, 220.626082)"><g><path d="M 1.90625 -5.328125 L 1.90625 -2.234375 C 1.90625 -1.890625 2.003906 -1.613281 2.203125 -1.40625 C 2.410156 -1.207031 2.679688 -1.109375 3.015625 -1.109375 C 3.253906 -1.109375 3.46875 -1.148438 3.65625 -1.234375 C 3.84375 -1.328125 4 -1.460938 4.125 -1.640625 L 4.125 -5.328125 L 5.515625 -5.328125 L 5.515625 0 L 4.125 0 L 4.125 -0.421875 C 3.914062 -0.253906 3.6875 -0.125 3.4375 -0.03125 C 3.1875 0.0625 2.910156 0.109375 2.609375 0.109375 C 2.003906 0.109375 1.503906 -0.0859375 1.109375 -0.484375 C 0.710938 -0.890625 0.515625 -1.398438 0.515625 -2.015625 L 0.515625 -5.328125 Z M 1.90625 -5.328125 "/></g></g></g><g fill="#0658f6" fill-opacity="1"><g transform="translate(240.969291, 220.626082)"><g><path d="M 0.546875 0 L 0.546875 -5.328125 L 1.953125 -5.328125 L 1.953125 -4.734375 C 2.117188 -4.972656 2.320312 -5.148438 2.5625 -5.265625 C 2.8125 -5.390625 3.082031 -5.453125 3.375 -5.453125 C 3.507812 -5.441406 3.625 -5.425781 3.71875 -5.40625 C 3.8125 -5.394531 3.890625 -5.367188 3.953125 -5.328125 L 3.953125 -4.09375 C 3.847656 -4.144531 3.734375 -4.179688 3.609375 -4.203125 C 3.492188 -4.222656 3.367188 -4.234375 3.234375 -4.234375 C 2.960938 -4.234375 2.710938 -4.164062 2.484375 -4.03125 C 2.253906 -3.894531 2.078125 -3.695312 1.953125 -3.4375 L 1.953125 0 Z M 0.546875 0 "/></g></g></g><g fill="#0658f6" fill-opacity="1"><g transform="translate(244.862782, 220.626082)"><g/></g></g><g fill="#0658f6" fill-opacity="1"><g transform="translate(246.651081, 220.626082)"><g><path d="M 0.109375 -0.640625 L 0.796875 -1.5625 C 1.109375 -1.351562 1.40625 -1.195312 1.6875 -1.09375 C 1.96875 -1 2.25 -0.953125 2.53125 -0.953125 C 2.84375 -0.953125 3.09375 -1.003906 3.28125 -1.109375 C 3.46875 -1.210938 3.5625 -1.347656 3.5625 -1.515625 C 3.5625 -1.660156 3.503906 -1.769531 3.390625 -1.84375 C 3.285156 -1.925781 3.117188 -1.984375 2.890625 -2.015625 L 1.875 -2.171875 C 1.34375 -2.253906 0.9375 -2.425781 0.65625 -2.6875 C 0.382812 -2.945312 0.25 -3.289062 0.25 -3.71875 C 0.25 -4.226562 0.453125 -4.632812 0.859375 -4.9375 C 1.265625 -5.25 1.800781 -5.40625 2.46875 -5.40625 C 2.863281 -5.40625 3.242188 -5.347656 3.609375 -5.234375 C 3.972656 -5.117188 4.320312 -4.953125 4.65625 -4.734375 L 3.984375 -3.84375 C 3.691406 -4.007812 3.410156 -4.132812 3.140625 -4.21875 C 2.878906 -4.3125 2.613281 -4.359375 2.34375 -4.359375 C 2.09375 -4.359375 1.890625 -4.304688 1.734375 -4.203125 C 1.578125 -4.109375 1.5 -3.984375 1.5 -3.828125 C 1.5 -3.691406 1.554688 -3.582031 1.671875 -3.5 C 1.785156 -3.414062 1.972656 -3.359375 2.234375 -3.328125 L 3.25 -3.171875 C 3.769531 -3.097656 4.171875 -2.925781 4.453125 -2.65625 C 4.734375 -2.394531 4.875 -2.0625 4.875 -1.65625 C 4.875 -1.40625 4.8125 -1.171875 4.6875 -0.953125 C 4.570312 -0.742188 4.410156 -0.554688 4.203125 -0.390625 C 4.003906 -0.234375 3.757812 -0.109375 3.46875 -0.015625 C 3.1875 0.0664062 2.878906 0.109375 2.546875 0.109375 C 2.054688 0.109375 1.597656 0.046875 1.171875 -0.078125 C 0.753906 -0.210938 0.398438 -0.398438 0.109375 -0.640625 Z M 0.109375 -0.640625 "/></g></g></g><g fill="#0658f6" fill-opacity="1"><g transform="translate(251.402998, 220.626082)"><g><path d="M 0.3125 -2.65625 C 0.3125 -3.039062 0.382812 -3.398438 0.53125 -3.734375 C 0.675781 -4.078125 0.875 -4.375 1.125 -4.625 C 1.382812 -4.875 1.6875 -5.066406 2.03125 -5.203125 C 2.382812 -5.347656 2.753906 -5.421875 3.140625 -5.421875 C 3.535156 -5.421875 3.90625 -5.347656 4.25 -5.203125 C 4.601562 -5.066406 4.90625 -4.875 5.15625 -4.625 C 5.414062 -4.375 5.617188 -4.078125 5.765625 -3.734375 C 5.910156 -3.398438 5.984375 -3.039062 5.984375 -2.65625 C 5.984375 -2.269531 5.910156 -1.90625 5.765625 -1.5625 C 5.617188 -1.226562 5.414062 -0.9375 5.15625 -0.6875 C 4.90625 -0.445312 4.601562 -0.253906 4.25 -0.109375 C 3.90625 0.0351562 3.535156 0.109375 3.140625 0.109375 C 2.753906 0.109375 2.382812 0.0351562 2.03125 -0.109375 C 1.6875 -0.253906 1.382812 -0.445312 1.125 -0.6875 C 0.875 -0.9375 0.675781 -1.226562 0.53125 -1.5625 C 0.382812 -1.90625 0.3125 -2.269531 0.3125 -2.65625 Z M 3.140625 -1.109375 C 3.554688 -1.109375 3.90625 -1.257812 4.1875 -1.5625 C 4.476562 -1.863281 4.625 -2.226562 4.625 -2.65625 C 4.625 -3.09375 4.476562 -3.457031 4.1875 -3.75 C 3.90625 -4.050781 3.554688 -4.203125 3.140625 -4.203125 C 2.734375 -4.203125 2.382812 -4.050781 2.09375 -3.75 C 1.8125 -3.457031 1.671875 -3.09375 1.671875 -2.65625 C 1.671875 -2.226562 1.8125 -1.863281 2.09375 -1.5625 C 2.382812 -1.257812 2.734375 -1.109375 3.140625 -1.109375 Z M 3.140625 -1.109375 "/></g></g></g><g fill="#0658f6" fill-opacity="1"><g transform="translate(257.432331, 220.626082)"><g><path d="M 1.90625 -5.328125 L 1.90625 -2.234375 C 1.90625 -1.890625 2.003906 -1.613281 2.203125 -1.40625 C 2.410156 -1.207031 2.679688 -1.109375 3.015625 -1.109375 C 3.253906 -1.109375 3.46875 -1.148438 3.65625 -1.234375 C 3.84375 -1.328125 4 -1.460938 4.125 -1.640625 L 4.125 -5.328125 L 5.515625 -5.328125 L 5.515625 0 L 4.125 0 L 4.125 -0.421875 C 3.914062 -0.253906 3.6875 -0.125 3.4375 -0.03125 C 3.1875 0.0625 2.910156 0.109375 2.609375 0.109375 C 2.003906 0.109375 1.503906 -0.0859375 1.109375 -0.484375 C 0.710938 -0.890625 0.515625 -1.398438 0.515625 -2.015625 L 0.515625 -5.328125 Z M 1.90625 -5.328125 "/></g></g></g><g fill="#0658f6" fill-opacity="1"><g transform="translate(263.226619, 220.626082)"><g><path d="M 0.546875 0 L 0.546875 -5.328125 L 1.953125 -5.328125 L 1.953125 -4.734375 C 2.117188 -4.972656 2.320312 -5.148438 2.5625 -5.265625 C 2.8125 -5.390625 3.082031 -5.453125 3.375 -5.453125 C 3.507812 -5.441406 3.625 -5.425781 3.71875 -5.40625 C 3.8125 -5.394531 3.890625 -5.367188 3.953125 -5.328125 L 3.953125 -4.09375 C 3.847656 -4.144531 3.734375 -4.179688 3.609375 -4.203125 C 3.492188 -4.222656 3.367188 -4.234375 3.234375 -4.234375 C 2.960938 -4.234375 2.710938 -4.164062 2.484375 -4.03125 C 2.253906 -3.894531 2.078125 -3.695312 1.953125 -3.4375 L 1.953125 0 Z M 0.546875 0 "/></g></g></g><g fill="#0658f6" fill-opacity="1"><g transform="translate(267.120109, 220.626082)"><g><path d="M 3.15625 -1.125 C 3.394531 -1.125 3.617188 -1.171875 3.828125 -1.265625 C 4.035156 -1.359375 4.234375 -1.507812 4.421875 -1.71875 L 5.265625 -0.84375 C 4.992188 -0.550781 4.664062 -0.316406 4.28125 -0.140625 C 3.894531 0.0234375 3.5 0.109375 3.09375 0.109375 C 2.707031 0.109375 2.34375 0.0351562 2 -0.109375 C 1.65625 -0.253906 1.359375 -0.445312 1.109375 -0.6875 C 0.859375 -0.9375 0.660156 -1.226562 0.515625 -1.5625 C 0.378906 -1.90625 0.3125 -2.269531 0.3125 -2.65625 C 0.3125 -3.039062 0.378906 -3.398438 0.515625 -3.734375 C 0.660156 -4.078125 0.859375 -4.375 1.109375 -4.625 C 1.359375 -4.875 1.65625 -5.066406 2 -5.203125 C 2.34375 -5.347656 2.707031 -5.421875 3.09375 -5.421875 C 3.519531 -5.421875 3.925781 -5.335938 4.3125 -5.171875 C 4.695312 -5.003906 5.023438 -4.769531 5.296875 -4.46875 L 4.4375 -3.5625 C 4.25 -3.78125 4.046875 -3.941406 3.828125 -4.046875 C 3.609375 -4.148438 3.375 -4.203125 3.125 -4.203125 C 2.726562 -4.203125 2.390625 -4.050781 2.109375 -3.75 C 1.835938 -3.457031 1.703125 -3.09375 1.703125 -2.65625 C 1.703125 -2.21875 1.84375 -1.851562 2.125 -1.5625 C 2.40625 -1.269531 2.75 -1.125 3.15625 -1.125 Z M 3.15625 -1.125 "/></g></g></g><g fill="#0658f6" fill-opacity="1"><g transform="translate(272.291017, 220.626082)"><g><path d="M 1.25 -5.953125 C 1.03125 -5.953125 0.84375 -6.03125 0.6875 -6.1875 C 0.53125 -6.34375 0.453125 -6.53125 0.453125 -6.75 C 0.453125 -6.96875 0.53125 -7.15625 0.6875 -7.3125 C 0.84375 -7.46875 1.03125 -7.546875 1.25 -7.546875 C 1.46875 -7.546875 1.65625 -7.46875 1.8125 -7.3125 C 1.96875 -7.15625 2.046875 -6.96875 2.046875 -6.75 C 2.046875 -6.53125 1.96875 -6.34375 1.8125 -6.1875 C 1.65625 -6.03125 1.46875 -5.953125 1.25 -5.953125 Z M 1.953125 -5.328125 L 1.953125 0 L 0.546875 0 L 0.546875 -5.328125 Z M 1.953125 -5.328125 "/></g></g></g><g fill="#0658f6" fill-opacity="1"><g transform="translate(274.518754, 220.626082)"><g><path d="M 0.546875 0 L 0.546875 -5.328125 L 1.953125 -5.328125 L 1.953125 -4.90625 C 2.160156 -5.070312 2.382812 -5.195312 2.625 -5.28125 C 2.875 -5.375 3.144531 -5.421875 3.4375 -5.421875 C 4.050781 -5.421875 4.554688 -5.222656 4.953125 -4.828125 C 5.347656 -4.429688 5.546875 -3.925781 5.546875 -3.3125 L 5.546875 0 L 4.15625 0 L 4.15625 -3.109375 C 4.15625 -3.441406 4.050781 -3.707031 3.84375 -3.90625 C 3.644531 -4.113281 3.378906 -4.21875 3.046875 -4.21875 C 2.816406 -4.21875 2.609375 -4.171875 2.421875 -4.078125 C 2.234375 -3.984375 2.078125 -3.851562 1.953125 -3.6875 L 1.953125 0 Z M 0.546875 0 "/></g></g></g><g fill="#0658f6" fill-opacity="1"><g transform="translate(280.313042, 220.626082)"><g><path d="M 3 0.03125 C 2.625 0.03125 2.269531 -0.0390625 1.9375 -0.1875 C 1.613281 -0.332031 1.328125 -0.523438 1.078125 -0.765625 C 0.835938 -1.015625 0.648438 -1.300781 0.515625 -1.625 C 0.378906 -1.957031 0.3125 -2.316406 0.3125 -2.703125 C 0.3125 -3.078125 0.378906 -3.425781 0.515625 -3.75 C 0.660156 -4.082031 0.851562 -4.367188 1.09375 -4.609375 C 1.34375 -4.859375 1.632812 -5.050781 1.96875 -5.1875 C 2.300781 -5.332031 2.660156 -5.40625 3.046875 -5.40625 C 3.304688 -5.40625 3.554688 -5.367188 3.796875 -5.296875 C 4.046875 -5.222656 4.273438 -5.117188 4.484375 -4.984375 L 4.484375 -5.328125 L 5.859375 -5.328125 L 5.859375 0 C 5.859375 0.695312 5.628906 1.238281 5.171875 1.625 C 4.722656 2.007812 4.078125 2.203125 3.234375 2.203125 C 2.816406 2.203125 2.421875 2.160156 2.046875 2.078125 C 1.671875 1.992188 1.328125 1.875 1.015625 1.71875 L 1.5 0.625 C 1.789062 0.769531 2.078125 0.875 2.359375 0.9375 C 2.640625 1.007812 2.921875 1.046875 3.203125 1.046875 C 3.617188 1.046875 3.929688 0.957031 4.140625 0.78125 C 4.359375 0.601562 4.46875 0.335938 4.46875 -0.015625 L 4.46875 -0.453125 C 4.257812 -0.296875 4.03125 -0.175781 3.78125 -0.09375 C 3.53125 -0.0078125 3.269531 0.03125 3 0.03125 Z M 1.6875 -2.703125 C 1.6875 -2.265625 1.832031 -1.894531 2.125 -1.59375 C 2.425781 -1.300781 2.789062 -1.15625 3.21875 -1.15625 C 3.46875 -1.15625 3.695312 -1.195312 3.90625 -1.28125 C 4.125 -1.363281 4.3125 -1.484375 4.46875 -1.640625 L 4.46875 -3.734375 C 4.3125 -3.878906 4.125 -3.992188 3.90625 -4.078125 C 3.695312 -4.160156 3.472656 -4.203125 3.234375 -4.203125 C 2.796875 -4.203125 2.425781 -4.054688 2.125 -3.765625 C 1.832031 -3.472656 1.6875 -3.117188 1.6875 -2.703125 Z M 1.6875 -2.703125 "/></g></g></g><g fill="#0658f6" fill-opacity="1"><g transform="translate(286.465013, 220.626082)"><g/></g></g><g fill="#0658f6" fill-opacity="1"><g transform="translate(288.25331, 220.626082)"><g><path d="M 0.546875 2.140625 L 0.546875 -5.328125 L 1.9375 -5.328125 L 1.9375 -4.890625 C 2.144531 -5.054688 2.378906 -5.179688 2.640625 -5.265625 C 2.898438 -5.347656 3.164062 -5.390625 3.4375 -5.390625 C 3.8125 -5.390625 4.164062 -5.316406 4.5 -5.171875 C 4.832031 -5.035156 5.117188 -4.84375 5.359375 -4.59375 C 5.609375 -4.351562 5.800781 -4.066406 5.9375 -3.734375 C 6.082031 -3.398438 6.15625 -3.039062 6.15625 -2.65625 C 6.15625 -2.269531 6.082031 -1.910156 5.9375 -1.578125 C 5.789062 -1.242188 5.59375 -0.953125 5.34375 -0.703125 C 5.101562 -0.460938 4.8125 -0.269531 4.46875 -0.125 C 4.132812 0.0078125 3.78125 0.078125 3.40625 0.078125 C 3.144531 0.078125 2.890625 0.0390625 2.640625 -0.03125 C 2.390625 -0.101562 2.160156 -0.207031 1.953125 -0.34375 L 1.953125 2.140625 Z M 3.21875 -4.203125 C 2.96875 -4.203125 2.734375 -4.15625 2.515625 -4.0625 C 2.296875 -3.976562 2.109375 -3.859375 1.953125 -3.703125 L 1.953125 -1.609375 C 2.097656 -1.453125 2.28125 -1.328125 2.5 -1.234375 C 2.726562 -1.148438 2.96875 -1.109375 3.21875 -1.109375 C 3.65625 -1.109375 4.019531 -1.253906 4.3125 -1.546875 C 4.613281 -1.847656 4.765625 -2.21875 4.765625 -2.65625 C 4.765625 -3.09375 4.613281 -3.457031 4.3125 -3.75 C 4.007812 -4.050781 3.644531 -4.203125 3.21875 -4.203125 Z M 3.21875 -4.203125 "/></g></g></g><g fill="#0658f6" fill-opacity="1"><g transform="translate(294.446156, 220.626082)"><g><path d="M 2.234375 0.09375 C 1.660156 0.09375 1.191406 -0.0546875 0.828125 -0.359375 C 0.472656 -0.660156 0.296875 -1.054688 0.296875 -1.546875 C 0.296875 -2.046875 0.488281 -2.4375 0.875 -2.71875 C 1.269531 -3.007812 1.804688 -3.15625 2.484375 -3.15625 C 2.703125 -3.15625 2.921875 -3.140625 3.140625 -3.109375 C 3.359375 -3.078125 3.570312 -3.023438 3.78125 -2.953125 L 3.78125 -3.328125 C 3.78125 -3.640625 3.679688 -3.875 3.484375 -4.03125 C 3.296875 -4.1875 3.019531 -4.265625 2.65625 -4.265625 C 2.425781 -4.265625 2.179688 -4.226562 1.921875 -4.15625 C 1.660156 -4.082031 1.363281 -3.972656 1.03125 -3.828125 L 0.515625 -4.859375 C 0.929688 -5.046875 1.332031 -5.1875 1.71875 -5.28125 C 2.113281 -5.375 2.503906 -5.421875 2.890625 -5.421875 C 3.609375 -5.421875 4.164062 -5.25 4.5625 -4.90625 C 4.957031 -4.5625 5.15625 -4.078125 5.15625 -3.453125 L 5.15625 0 L 3.78125 0 L 3.78125 -0.375 C 3.550781 -0.21875 3.3125 -0.0976562 3.0625 -0.015625 C 2.820312 0.0546875 2.546875 0.09375 2.234375 0.09375 Z M 1.640625 -1.578125 C 1.640625 -1.367188 1.726562 -1.203125 1.90625 -1.078125 C 2.082031 -0.960938 2.316406 -0.90625 2.609375 -0.90625 C 2.835938 -0.90625 3.046875 -0.929688 3.234375 -0.984375 C 3.429688 -1.046875 3.613281 -1.132812 3.78125 -1.25 L 3.78125 -2.046875 C 3.613281 -2.109375 3.4375 -2.15625 3.25 -2.1875 C 3.0625 -2.21875 2.863281 -2.234375 2.65625 -2.234375 C 2.332031 -2.234375 2.082031 -2.171875 1.90625 -2.046875 C 1.726562 -1.929688 1.640625 -1.773438 1.640625 -1.578125 Z M 1.640625 -1.578125 "/></g></g></g><g fill="#0658f6" fill-opacity="1"><g transform="translate(299.852109, 220.626082)"><g><path d="M 0.546875 0 L 0.546875 -5.328125 L 1.953125 -5.328125 L 1.953125 -4.734375 C 2.117188 -4.972656 2.320312 -5.148438 2.5625 -5.265625 C 2.8125 -5.390625 3.082031 -5.453125 3.375 -5.453125 C 3.507812 -5.441406 3.625 -5.425781 3.71875 -5.40625 C 3.8125 -5.394531 3.890625 -5.367188 3.953125 -5.328125 L 3.953125 -4.09375 C 3.847656 -4.144531 3.734375 -4.179688 3.609375 -4.203125 C 3.492188 -4.222656 3.367188 -4.234375 3.234375 -4.234375 C 2.960938 -4.234375 2.710938 -4.164062 2.484375 -4.03125 C 2.253906 -3.894531 2.078125 -3.695312 1.953125 -3.4375 L 1.953125 0 Z M 0.546875 0 "/></g></g></g><g fill="#0658f6" fill-opacity="1"><g transform="translate(303.745604, 220.626082)"><g><path d="M 1.28125 -1.5 L 1.28125 -4.15625 L 0.1875 -4.15625 L 0.1875 -5.328125 L 1.28125 -5.328125 L 1.28125 -6.6875 L 2.671875 -7 L 2.671875 -5.328125 L 4.1875 -5.328125 L 4.1875 -4.15625 L 2.671875 -4.15625 L 2.671875 -1.78125 C 2.671875 -1.53125 2.722656 -1.351562 2.828125 -1.25 C 2.941406 -1.15625 3.132812 -1.109375 3.40625 -1.109375 C 3.539062 -1.109375 3.664062 -1.113281 3.78125 -1.125 C 3.894531 -1.144531 4.019531 -1.175781 4.15625 -1.21875 L 4.15625 -0.078125 C 4.007812 -0.0351562 3.828125 0 3.609375 0.03125 C 3.398438 0.0625 3.222656 0.078125 3.078125 0.078125 C 2.484375 0.078125 2.035156 -0.0507812 1.734375 -0.3125 C 1.429688 -0.582031 1.28125 -0.976562 1.28125 -1.5 Z M 1.28125 -1.5 "/></g></g></g><g fill="#0658f6" fill-opacity="1"><g transform="translate(307.812824, 220.626082)"><g><path d="M 0.546875 0 L 0.546875 -5.328125 L 1.953125 -5.328125 L 1.953125 -4.90625 C 2.160156 -5.070312 2.382812 -5.195312 2.625 -5.28125 C 2.875 -5.375 3.144531 -5.421875 3.4375 -5.421875 C 4.050781 -5.421875 4.554688 -5.222656 4.953125 -4.828125 C 5.347656 -4.429688 5.546875 -3.925781 5.546875 -3.3125 L 5.546875 0 L 4.15625 0 L 4.15625 -3.109375 C 4.15625 -3.441406 4.050781 -3.707031 3.84375 -3.90625 C 3.644531 -4.113281 3.378906 -4.21875 3.046875 -4.21875 C 2.816406 -4.21875 2.609375 -4.171875 2.421875 -4.078125 C 2.234375 -3.984375 2.078125 -3.851562 1.953125 -3.6875 L 1.953125 0 Z M 0.546875 0 "/></g></g></g><g fill="#0658f6" fill-opacity="1"><g transform="translate(313.607116, 220.626082)"><g><path d="M 5.328125 -0.671875 C 4.992188 -0.398438 4.65625 -0.203125 4.3125 -0.078125 C 3.96875 0.046875 3.585938 0.109375 3.171875 0.109375 C 2.765625 0.109375 2.382812 0.0351562 2.03125 -0.109375 C 1.6875 -0.253906 1.382812 -0.445312 1.125 -0.6875 C 0.875 -0.9375 0.675781 -1.226562 0.53125 -1.5625 C 0.382812 -1.90625 0.3125 -2.269531 0.3125 -2.65625 C 0.3125 -3.039062 0.378906 -3.398438 0.515625 -3.734375 C 0.648438 -4.066406 0.84375 -4.359375 1.09375 -4.609375 C 1.34375 -4.859375 1.632812 -5.054688 1.96875 -5.203125 C 2.300781 -5.347656 2.660156 -5.421875 3.046875 -5.421875 C 3.421875 -5.421875 3.769531 -5.347656 4.09375 -5.203125 C 4.414062 -5.054688 4.691406 -4.851562 4.921875 -4.59375 C 5.160156 -4.34375 5.347656 -4.039062 5.484375 -3.6875 C 5.617188 -3.34375 5.6875 -2.96875 5.6875 -2.5625 L 5.6875 -2.1875 L 1.71875 -2.1875 C 1.8125 -1.851562 1.992188 -1.582031 2.265625 -1.375 C 2.535156 -1.175781 2.859375 -1.078125 3.234375 -1.078125 C 3.460938 -1.078125 3.675781 -1.113281 3.875 -1.1875 C 4.082031 -1.257812 4.257812 -1.363281 4.40625 -1.5 Z M 3.015625 -4.265625 C 2.691406 -4.265625 2.414062 -4.164062 2.1875 -3.96875 C 1.957031 -3.769531 1.796875 -3.507812 1.703125 -3.1875 L 4.3125 -3.1875 C 4.21875 -3.5 4.050781 -3.753906 3.8125 -3.953125 C 3.582031 -4.160156 3.316406 -4.265625 3.015625 -4.265625 Z M 3.015625 -4.265625 "/></g></g></g><g fill="#0658f6" fill-opacity="1"><g transform="translate(319.329875, 220.626082)"><g><path d="M 0.546875 0 L 0.546875 -5.328125 L 1.953125 -5.328125 L 1.953125 -4.734375 C 2.117188 -4.972656 2.320312 -5.148438 2.5625 -5.265625 C 2.8125 -5.390625 3.082031 -5.453125 3.375 -5.453125 C 3.507812 -5.441406 3.625 -5.425781 3.71875 -5.40625 C 3.8125 -5.394531 3.890625 -5.367188 3.953125 -5.328125 L 3.953125 -4.09375 C 3.847656 -4.144531 3.734375 -4.179688 3.609375 -4.203125 C 3.492188 -4.222656 3.367188 -4.234375 3.234375 -4.234375 C 2.960938 -4.234375 2.710938 -4.164062 2.484375 -4.03125 C 2.253906 -3.894531 2.078125 -3.695312 1.953125 -3.4375 L 1.953125 0 Z M 0.546875 0 "/></g></g></g></svg>